<svg xmlns="http://www.w3.org/2000/svg" version="1.1" xmlns:xlink="http://www.w3.org/1999/xlink" xmlns:svgjs="http://svgjs.com/svgjs" width="1440" height="560" preserveAspectRatio="none" viewBox="0 0 1440 560"><g mask="url(&quot;#SvgjsMask1003&quot;)" fill="none" data-darkreader-inline-fill="" style="--darkreader-inline-fill:none;"><rect width="1440" height="560" x="0" y="0" fill="rgba(217, 14, 59, 1)" data-darkreader-inline-fill="" style="--darkreader-inline-fill:#ae0b2f;"></rect><path d="M0,597.783C117.334,591.963,231.499,575.745,337.61,525.331C455.176,469.475,585.078,410.257,641.541,292.982C698.255,175.187,661.247,36.741,634.454,-91.221C609.091,-212.353,574.057,-333.702,491.096,-425.538C409.046,-516.366,295.218,-571.812,175.849,-598.886C61.192,-624.891,-53.457,-597.473,-168.903,-575.232C-296.407,-550.668,-456.894,-567.118,-533.451,-462.238C-610.803,-356.268,-544.184,-207.324,-532.866,-76.615C-524.087,24.768,-501.347,118.569,-474.655,216.768C-442.363,335.57,-455.853,482.862,-359.845,559.929C-263.845,636.99,-122.952,603.882,0,597.783" fill="#9a0a2a" data-darkreader-inline-fill="" style="--darkreader-inline-fill:#7b0822;"></path><path d="M1440 825.867C1500.774 830.1410000000001 1560.464 856.03 1618.658 837.9970000000001 1685.723 817.2149999999999 1764.8600000000001 785.077 1786.8319999999999 718.393 1809.079 650.875 1744.772 587.103 1723.6979999999999 519.21 1706.579 464.05899999999997 1712.212 400.536 1674.573 356.741 1636.883 312.88599999999997 1575.156 304.281 1521.171 283.557 1462.006 260.844 1404.071 212.73000000000002 1342.935 229.426 1281.776 246.128 1256.882 317.478 1216.872 366.658 1178.277 414.099 1121.2440000000001 452.384 1112.329 512.888 1103.407 573.435 1140.8890000000001 629.49 1170.229 683.2 1197.742 733.564 1226.062 787.124 1276.794 813.953 1326.01 839.98 1384.463 821.961 1440 825.867" fill="#f23861" data-darkreader-inline-fill="" style="--darkreader-inline-fill:#a70b2d;"></path></g><defs><mask id="SvgjsMask1003"><rect width="1440" height="560" fill="#ffffff" data-darkreader-inline-fill="" style="--darkreader-inline-fill:#181a1b;"></rect></mask></defs></svg>